<svg width="21" height="20" viewBox="0 0 21 20" fill="none" xmlns="http://www.w3.org/2000/svg">
<path d="M9.25036 10H4.66702M4.59648 10.2429L2.65071 16.0552C2.49785 16.5118 2.42142 16.7401 2.47627 16.8807C2.5239 17.0028 2.6262 17.0954 2.75244 17.1306C2.8978 17.1712 3.11736 17.0724 3.55647 16.8748L17.4827 10.608C17.9113 10.4151 18.1256 10.3186 18.1918 10.1847C18.2494 10.0683 18.2494 9.93173 18.1918 9.81534C18.1256 9.68137 17.9113 9.58493 17.4827 9.39206L3.55161 3.12311C3.11383 2.92611 2.89493 2.82761 2.74971 2.86801C2.6236 2.90311 2.5213 2.99543 2.47351 3.1173C2.41847 3.25762 2.49408 3.48544 2.64531 3.94107L4.59702 9.82128C4.62299 9.89954 4.63598 9.93867 4.64111 9.97868C4.64565 10.0142 4.64561 10.0501 4.64097 10.0856C4.63574 10.1256 4.62265 10.1647 4.59648 10.2429Z" stroke="white" stroke-width="2" stroke-linecap="round" stroke-linejoin="round"/>
</svg>
